<svg width="346" height="323" viewBox="0 0 346 323" fill="none" xmlns="http://www.w3.org/2000/svg">
<path fill-rule="evenodd" clip-rule="evenodd" d="M173.585 32.5359L206.15 76.7304H184.715L165.341 58.97L145.967 76.7304H124.121L156.685 32.5359H173.585ZM250.256 97.7953C228.821 97.7953 212.333 107.708 205.737 120.099V101.1H173.585V296.464H206.562V225.835C213.569 236.574 229.233 245.248 249.019 245.248C289.415 245.248 314.972 213.444 314.972 171.315C315.384 129.599 291.889 97.7953 250.256 97.7953ZM244.073 215.097C222.226 215.097 206.15 197.749 206.15 170.902C206.15 144.468 221.813 127.121 244.073 127.121C266.744 127.121 281.996 144.468 281.996 170.902C281.996 198.162 266.332 215.097 244.073 215.097ZM157.509 100.687H124.12V183.707C124.12 202.293 114.227 215.097 94.8536 215.097C74.6555 215.097 66.4113 200.228 66.4113 182.88V100.274H33.0226V189.489C33.0226 220.466 52.8085 245.661 86.1973 245.661C102.686 245.661 119.174 238.64 125.769 225.836C125.769 231.618 126.181 238.227 127.006 241.531H159.158C159.107 240.873 159.051 240.166 158.99 239.41C158.556 233.993 157.921 226.071 157.921 215.923V100.687H157.509Z" fill="#008EF4"/>
</svg>
