<svg width="1000" height="323" viewBox="0 0 1000 323" fill="none" xmlns="http://www.w3.org/2000/svg">
<path fill-rule="evenodd" clip-rule="evenodd" d="M941.228 100.099H896.709L842.71 156.685V31.5359H809.733V240.531H842.71V201.292L860.023 183.119L901.243 240.531H942.464L883.519 159.576L941.228 100.099ZM491.923 129.838V195.097C491.923 207.488 497.281 212.444 510.472 212.444C515.006 212.444 520.777 211.618 522.014 211.205V238.878C519.953 239.705 513.357 242.183 501.403 242.183C475.434 242.183 459.358 226.901 459.358 200.466V129.838H433.389V100.099H440.397C455.236 100.099 461.831 90.5997 461.831 78.2087V57.144H491.923V100.099H521.189V129.838H491.923ZM386.398 157.098L364.963 152.967C356.306 151.315 350.948 145.946 350.948 138.098C350.948 129.425 359.192 121.99 371.146 121.99C389.695 121.99 395.878 134.794 397.115 143.055L425.557 134.794C423.084 120.751 410.718 95.5558 371.558 95.5558C342.291 95.5558 320.032 116.207 320.032 140.989C320.032 160.402 332.811 176.51 357.955 181.88L378.566 186.423C389.695 188.901 395.054 194.684 395.054 202.118C395.054 210.792 388.046 218.227 374.031 218.227C356.306 218.227 346.826 207.075 345.589 194.271L316.322 202.531C317.971 218.227 333.635 245.074 374.031 245.074C409.893 245.074 427.206 221.531 427.206 200.053C426.794 178.988 413.191 162.88 386.398 157.098ZM203.79 119.099C210.385 106.708 226.874 96.7953 248.308 96.7953C289.941 96.7953 313.437 128.599 313.025 170.315C313.025 212.444 287.468 244.248 247.072 244.248C227.286 244.248 211.622 235.574 204.614 224.835V295.464H171.638V100.1H203.79V119.099ZM204.202 169.902C204.202 196.749 220.278 214.097 242.125 214.097C264.384 214.097 280.048 197.162 280.048 169.902C280.048 143.468 264.797 126.121 242.125 126.121C219.866 126.121 204.202 143.468 204.202 169.902ZM122.173 99.6869H155.562H155.974V214.923C155.974 225.071 156.609 232.993 157.043 238.41C157.103 239.166 157.16 239.873 157.211 240.531H125.058C124.234 237.227 123.822 230.618 123.822 224.836C117.226 237.64 100.738 244.661 84.2499 244.661C50.8612 244.661 31.0753 219.466 31.0753 188.489V99.2739H64.464V181.88C64.464 199.228 72.7081 214.097 92.9063 214.097C112.28 214.097 122.173 201.293 122.173 182.707V99.6869ZM651.446 146.772C651.446 118.686 635.37 94.3172 592.089 94.3172C557.463 94.3172 535.616 115.795 533.143 140.164L563.646 147.185C564.883 133.142 574.776 121.577 592.501 121.577C611.05 121.577 618.882 131.077 618.882 143.055C618.882 148.011 616.409 152.142 608.577 152.968L572.715 158.337C548.807 161.642 530.257 175.685 530.257 200.88C530.257 223.183 548.395 243.422 577.661 243.422C600.333 243.422 614.348 231.857 620.943 221.118C620.943 229.884 621.707 235.332 622.034 237.663V237.664C622.123 238.298 622.18 238.702 622.18 238.879H653.095C652.683 237.64 651.446 228.966 651.446 216.162V146.772ZM618.882 180.641C618.882 207.901 603.218 216.988 584.257 216.988C571.066 216.988 563.646 208.314 563.646 198.815C563.646 187.25 571.89 181.467 582.196 179.815L618.882 174.446V180.641ZM696.377 169.902C696.377 198.401 714.514 214.096 735.537 214.096C757.384 214.096 767.276 198.814 770.986 187.662L800.253 198.401C793.246 220.292 772.223 244.248 735.537 244.248C694.316 244.248 662.988 212.031 662.988 169.489C662.988 126.12 694.316 95.1428 734.712 95.1428C772.635 95.1428 793.246 118.686 799.016 141.402L768.925 152.554C766.04 140.163 756.559 126.12 735.124 126.12C714.514 126.12 696.377 141.402 696.377 169.902ZM171.638 31.5359L204.202 75.7304H182.768L163.394 57.97L144.02 75.7304H122.173L154.738 31.5359H171.638ZM963.075 104.643C963.075 101.752 961.013 99.6869 957.716 99.6869H952.357V115.382H955.243V109.6H956.479L959.777 115.382H963.075L959.777 109.187C961.426 108.774 963.075 107.122 963.075 104.643ZM957.304 107.122H955.243V102.578H957.304C958.952 102.578 960.189 103.404 960.189 105.056C959.777 106.295 958.952 107.122 957.304 107.122ZM942.876 107.947C942.876 100.099 949.06 93.4907 956.891 93.4907C964.723 93.4907 971.319 100.099 970.906 107.947C970.906 115.794 964.723 122.403 956.891 122.403C949.06 122.403 942.876 115.794 942.876 107.947ZM945.762 107.947C945.762 114.555 950.708 119.512 956.891 119.512C963.075 119.512 968.021 114.142 968.021 107.947C968.021 101.338 963.075 96.382 956.891 96.382C950.708 96.382 945.762 101.338 945.762 107.947Z" fill="#008EF4"/>
</svg>
